<?xml version="1.0" encoding="utf-8"?>
<!-- Svg Vector Icons : http://www.onlinewebfonts.com/icon -->
<!DOCTYPE svg PUBLIC "-//W3C//DTD SVG 1.1//EN" "http://www.w3.org/Graphics/SVG/1.1/DTD/svg11.dtd">
<svg version="1.1" xmlns="http://www.w3.org/2000/svg" xmlns:xlink="http://www.w3.org/1999/xlink" x="0px" y="0px" viewBox="0 0 1000 1000" enable-background="new 0 0 1000 1000" xml:space="preserve">
<metadata> Svg Vector Icons : http://www.onlinewebfonts.com/icon </metadata>
<g><path d="M13,993.2L13,993.2L13,993.2z"/><path fill="#FFA501" d="M818.4,529.4L528.7,239.7c-8.1-8.1-17.7-12.1-28.7-12.1c-11.1,0-20.6,4-28.7,12.1L181.6,529.4c-8.1,8.1-12.1,17.7-12.1,28.7s4,20.6,12.1,28.7l65.1,65.1c8.1,8.1,17.7,12.1,28.7,12.1c11.1,0,20.6-4,28.7-12.1L500,456l195.9,195.9c8.1,8.1,17.7,12.1,28.7,12.1c11,0,20.6-4,28.7-12.1l65.1-65.1c8.1-8.1,12.1-17.7,12.1-28.7C830.5,547,826.4,537.5,818.4,529.4L818.4,529.4z M500,6.8c88.9,0,170.9,21.9,246,65.7c75.1,43.8,134.5,103.3,178.3,178.3c43.8,75.1,65.7,157.1,65.7,246c0,88.9-21.9,170.9-65.7,246C880.5,817.9,821,877.3,746,921.1c-75.1,43.8-157,65.7-246,65.7s-170.9-21.9-246-65.7C179,877.3,119.5,817.9,75.7,742.8c-43.8-75.1-65.7-157-65.7-246c0-88.9,21.9-170.9,65.7-246C119.5,175.8,179,116.4,254,72.6C329.1,28.7,411.1,6.8,500,6.8z"/></g>
</svg>